<svg xmlns="http://www.w3.org/2000/svg" xmlns:xlink="http://www.w3.org/1999/xlink" width="500" zoomAndPan="magnify" viewBox="0 0 375 374.999991" height="500" preserveAspectRatio="xMidYMid meet" version="1.0"><defs><g/><clipPath id="19a6fc65d2"><path d="M 121 118.121094 L 285.996094 118.121094 L 285.996094 208 L 121 208 Z M 121 118.121094 " clip-rule="nonzero"/></clipPath><clipPath id="bfdd7f775f"><path d="M 195 205 L 213 205 L 213 223.121094 L 195 223.121094 Z M 195 205 " clip-rule="nonzero"/></clipPath><clipPath id="376ab6b7cc"><path d="M 252 205 L 271 205 L 271 223.121094 L 252 223.121094 Z M 252 205 " clip-rule="nonzero"/></clipPath><clipPath id="c0d718d83a"><path d="M 88.746094 167 L 119 167 L 119 175 L 88.746094 175 Z M 88.746094 167 " clip-rule="nonzero"/></clipPath></defs><g fill="#223867" fill-opacity="1"><g transform="translate(91.143488, 255.203138)"><g><path d="M 9.609375 0.203125 C 7.160156 0.203125 5.148438 -0.375 3.578125 -1.53125 C 2.003906 -2.695312 1.160156 -4.363281 1.046875 -6.53125 L 7.28125 -6.53125 C 7.34375 -5.789062 7.5625 -5.253906 7.9375 -4.921875 C 8.3125 -4.585938 8.796875 -4.421875 9.390625 -4.421875 C 9.929688 -4.421875 10.375 -4.550781 10.71875 -4.8125 C 11.070312 -5.082031 11.25 -5.457031 11.25 -5.9375 C 11.25 -6.550781 10.957031 -7.023438 10.375 -7.359375 C 9.800781 -7.703125 8.867188 -8.082031 7.578125 -8.5 C 6.203125 -8.957031 5.09375 -9.398438 4.25 -9.828125 C 3.40625 -10.253906 2.671875 -10.878906 2.046875 -11.703125 C 1.421875 -12.535156 1.109375 -13.613281 1.109375 -14.9375 C 1.109375 -16.289062 1.441406 -17.445312 2.109375 -18.40625 C 2.785156 -19.375 3.722656 -20.109375 4.921875 -20.609375 C 6.117188 -21.109375 7.472656 -21.359375 8.984375 -21.359375 C 11.421875 -21.359375 13.367188 -20.785156 14.828125 -19.640625 C 16.296875 -18.492188 17.082031 -16.890625 17.1875 -14.828125 L 10.828125 -14.828125 C 10.804688 -15.460938 10.609375 -15.9375 10.234375 -16.25 C 9.867188 -16.570312 9.398438 -16.734375 8.828125 -16.734375 C 8.390625 -16.734375 8.03125 -16.601562 7.75 -16.34375 C 7.476562 -16.082031 7.34375 -15.710938 7.34375 -15.234375 C 7.34375 -14.835938 7.492188 -14.492188 7.796875 -14.203125 C 8.109375 -13.921875 8.492188 -13.675781 8.953125 -13.46875 C 9.410156 -13.257812 10.085938 -12.992188 10.984375 -12.671875 C 12.304688 -12.210938 13.398438 -11.757812 14.265625 -11.3125 C 15.128906 -10.875 15.875 -10.25 16.5 -9.4375 C 17.132812 -8.632812 17.453125 -7.617188 17.453125 -6.390625 C 17.453125 -5.128906 17.132812 -4 16.5 -3 C 15.875 -2.007812 14.96875 -1.226562 13.78125 -0.65625 C 12.601562 -0.0820312 11.210938 0.203125 9.609375 0.203125 Z M 9.609375 0.203125 "/></g></g></g><g fill="#223867" fill-opacity="1"><g transform="translate(109.631425, 255.203138)"><g><path d="M 14.96875 -3.4375 L 7.515625 -3.4375 L 6.390625 0 L 0.234375 0 L 7.90625 -21.03125 L 14.640625 -21.03125 L 22.28125 0 L 16.109375 0 Z M 13.515625 -7.90625 L 11.25 -14.703125 L 9.015625 -7.90625 Z M 13.515625 -7.90625 "/></g></g></g><g fill="#223867" fill-opacity="1"><g transform="translate(132.14495, 255.203138)"><g><path d="M 26.21875 -21.03125 L 26.21875 0 L 20.375 0 L 20.375 -11.609375 L 16.40625 0 L 11.515625 0 L 7.515625 -11.6875 L 7.515625 0 L 1.671875 0 L 1.671875 -21.03125 L 8.734375 -21.03125 L 14.015625 -7.375 L 19.171875 -21.03125 Z M 26.21875 -21.03125 "/></g></g></g><g fill="#223867" fill-opacity="1"><g transform="translate(160.025944, 255.203138)"><g><path d="M 18.28125 -14.015625 C 18.28125 -12.742188 17.988281 -11.585938 17.40625 -10.546875 C 16.820312 -9.503906 15.9375 -8.664062 14.75 -8.03125 C 13.5625 -7.40625 12.113281 -7.09375 10.40625 -7.09375 L 7.515625 -7.09375 L 7.515625 0 L 1.671875 0 L 1.671875 -21.03125 L 10.40625 -21.03125 C 12.101562 -21.03125 13.539062 -20.726562 14.71875 -20.125 C 15.90625 -19.53125 16.796875 -18.707031 17.390625 -17.65625 C 17.984375 -16.601562 18.28125 -15.390625 18.28125 -14.015625 Z M 9.84375 -11.75 C 11.488281 -11.75 12.3125 -12.503906 12.3125 -14.015625 C 12.3125 -15.546875 11.488281 -16.3125 9.84375 -16.3125 L 7.515625 -16.3125 L 7.515625 -11.75 Z M 9.84375 -11.75 "/></g></g></g><g fill="#223867" fill-opacity="1"><g transform="translate(178.990988, 255.203138)"><g><path d="M 11.75 0.203125 C 9.78125 0.203125 7.96875 -0.253906 6.3125 -1.171875 C 4.664062 -2.097656 3.359375 -3.378906 2.390625 -5.015625 C 1.429688 -6.660156 0.953125 -8.519531 0.953125 -10.59375 C 0.953125 -12.65625 1.429688 -14.503906 2.390625 -16.140625 C 3.359375 -17.785156 4.664062 -19.066406 6.3125 -19.984375 C 7.96875 -20.898438 9.78125 -21.359375 11.75 -21.359375 C 13.738281 -21.359375 15.550781 -20.898438 17.1875 -19.984375 C 18.832031 -19.066406 20.128906 -17.785156 21.078125 -16.140625 C 22.035156 -14.503906 22.515625 -12.65625 22.515625 -10.59375 C 22.515625 -8.519531 22.035156 -6.660156 21.078125 -5.015625 C 20.128906 -3.378906 18.828125 -2.097656 17.171875 -1.171875 C 15.523438 -0.253906 13.71875 0.203125 11.75 0.203125 Z M 11.75 -5.21875 C 13.238281 -5.21875 14.414062 -5.703125 15.28125 -6.671875 C 16.144531 -7.648438 16.578125 -8.957031 16.578125 -10.59375 C 16.578125 -12.257812 16.144531 -13.570312 15.28125 -14.53125 C 14.414062 -15.5 13.238281 -15.984375 11.75 -15.984375 C 10.238281 -15.984375 9.054688 -15.5 8.203125 -14.53125 C 7.347656 -13.570312 6.921875 -12.257812 6.921875 -10.59375 C 6.921875 -8.9375 7.347656 -7.625 8.203125 -6.65625 C 9.054688 -5.695312 10.238281 -5.21875 11.75 -5.21875 Z M 11.75 -5.21875 "/></g></g></g><g fill="#223867" fill-opacity="1"><g transform="translate(202.458729, 255.203138)"><g><path d="M 7.515625 -16.34375 L 7.515625 -12.921875 L 14.234375 -12.921875 L 14.234375 -8.46875 L 7.515625 -8.46875 L 7.515625 -4.6875 L 15.125 -4.6875 L 15.125 0 L 1.671875 0 L 1.671875 -21.03125 L 15.125 -21.03125 L 15.125 -16.34375 Z M 7.515625 -16.34375 "/></g></g></g><g fill="#223867" fill-opacity="1"><g transform="translate(218.79968, 255.203138)"><g><path d="M 12.3125 0 L 8.140625 -7.75 L 7.515625 -7.75 L 7.515625 0 L 1.671875 0 L 1.671875 -21.03125 L 10.890625 -21.03125 C 12.578125 -21.03125 14.003906 -20.734375 15.171875 -20.140625 C 16.347656 -19.554688 17.234375 -18.753906 17.828125 -17.734375 C 18.429688 -16.710938 18.734375 -15.5625 18.734375 -14.28125 C 18.734375 -12.851562 18.335938 -11.597656 17.546875 -10.515625 C 16.765625 -9.429688 15.617188 -8.660156 14.109375 -8.203125 L 18.84375 0 Z M 7.515625 -11.75 L 10.40625 -11.75 C 11.207031 -11.75 11.804688 -11.9375 12.203125 -12.3125 C 12.597656 -12.695312 12.796875 -13.242188 12.796875 -13.953125 C 12.796875 -14.628906 12.59375 -15.160156 12.1875 -15.546875 C 11.78125 -15.941406 11.1875 -16.140625 10.40625 -16.140625 L 7.515625 -16.140625 Z M 7.515625 -11.75 "/></g></g></g><g fill="#223867" fill-opacity="1"><g transform="translate(238.510204, 255.203138)"><g><path d="M 21.140625 0 L 15.296875 0 L 7.515625 -11.75 L 7.515625 0 L 1.671875 0 L 1.671875 -21.03125 L 7.515625 -21.03125 L 15.296875 -9.125 L 15.296875 -21.03125 L 21.140625 -21.03125 Z M 21.140625 0 "/></g></g></g><g fill="#223867" fill-opacity="1"><g transform="translate(261.321929, 255.203138)"><g><path d="M 14.96875 -3.4375 L 7.515625 -3.4375 L 6.390625 0 L 0.234375 0 L 7.90625 -21.03125 L 14.640625 -21.03125 L 22.28125 0 L 16.109375 0 Z M 13.515625 -7.90625 L 11.25 -14.703125 L 9.015625 -7.90625 Z M 13.515625 -7.90625 "/></g></g></g><g fill="#223867" fill-opacity="1"><g transform="translate(283.839671, 255.203138)"><g/></g></g><g fill="#004aad" fill-opacity="1"><g transform="translate(153.949925, 270.864827)"><g><path d="M 4 0.0625 C 3.332031 0.0625 2.734375 -0.0820312 2.203125 -0.375 C 1.671875 -0.675781 1.253906 -1.082031 0.953125 -1.59375 C 0.648438 -2.113281 0.5 -2.695312 0.5 -3.34375 C 0.5 -3.988281 0.648438 -4.570312 0.953125 -5.09375 C 1.253906 -5.613281 1.671875 -6.019531 2.203125 -6.3125 C 2.742188 -6.601562 3.34375 -6.75 4 -6.75 C 4.5 -6.75 4.957031 -6.664062 5.375 -6.5 C 5.800781 -6.332031 6.160156 -6.09375 6.453125 -5.78125 L 6 -5.328125 C 5.476562 -5.859375 4.820312 -6.125 4.03125 -6.125 C 3.5 -6.125 3.015625 -6 2.578125 -5.75 C 2.148438 -5.507812 1.8125 -5.175781 1.5625 -4.75 C 1.3125 -4.332031 1.1875 -3.863281 1.1875 -3.34375 C 1.1875 -2.820312 1.3125 -2.347656 1.5625 -1.921875 C 1.8125 -1.503906 2.148438 -1.175781 2.578125 -0.9375 C 3.015625 -0.695312 3.5 -0.578125 4.03125 -0.578125 C 4.832031 -0.578125 5.488281 -0.84375 6 -1.375 L 6.453125 -0.921875 C 6.160156 -0.609375 5.800781 -0.363281 5.375 -0.1875 C 4.957031 -0.0195312 4.5 0.0625 4 0.0625 Z M 4 0.0625 "/></g></g></g><g fill="#004aad" fill-opacity="1"><g transform="translate(163.80315, 270.864827)"><g><path d="M 4.015625 0.0625 C 3.347656 0.0625 2.742188 -0.0820312 2.203125 -0.375 C 1.671875 -0.675781 1.253906 -1.082031 0.953125 -1.59375 C 0.648438 -2.113281 0.5 -2.695312 0.5 -3.34375 C 0.5 -3.988281 0.648438 -4.566406 0.953125 -5.078125 C 1.253906 -5.597656 1.671875 -6.003906 2.203125 -6.296875 C 2.742188 -6.597656 3.347656 -6.75 4.015625 -6.75 C 4.679688 -6.75 5.28125 -6.601562 5.8125 -6.3125 C 6.34375 -6.019531 6.757812 -5.613281 7.0625 -5.09375 C 7.375 -4.570312 7.53125 -3.988281 7.53125 -3.34375 C 7.53125 -2.695312 7.375 -2.113281 7.0625 -1.59375 C 6.757812 -1.082031 6.34375 -0.675781 5.8125 -0.375 C 5.28125 -0.0820312 4.679688 0.0625 4.015625 0.0625 Z M 4.015625 -0.578125 C 4.546875 -0.578125 5.023438 -0.695312 5.453125 -0.9375 C 5.878906 -1.175781 6.210938 -1.503906 6.453125 -1.921875 C 6.691406 -2.347656 6.8125 -2.820312 6.8125 -3.34375 C 6.8125 -3.863281 6.691406 -4.335938 6.453125 -4.765625 C 6.210938 -5.191406 5.878906 -5.523438 5.453125 -5.765625 C 5.023438 -6.003906 4.546875 -6.125 4.015625 -6.125 C 3.484375 -6.125 3.003906 -6.003906 2.578125 -5.765625 C 2.148438 -5.523438 1.8125 -5.191406 1.5625 -4.765625 C 1.3125 -4.335938 1.1875 -3.863281 1.1875 -3.34375 C 1.1875 -2.820312 1.3125 -2.347656 1.5625 -1.921875 C 1.8125 -1.503906 2.148438 -1.175781 2.578125 -0.9375 C 3.003906 -0.695312 3.484375 -0.578125 4.015625 -0.578125 Z M 4.015625 -0.578125 "/></g></g></g><g fill="#004aad" fill-opacity="1"><g transform="translate(174.803862, 270.864827)"><g><path d="M 6.6875 -6.6875 L 6.6875 0 L 6.09375 0 L 1.796875 -5.4375 L 1.796875 0 L 1.09375 0 L 1.09375 -6.6875 L 1.671875 -6.6875 L 5.984375 -1.265625 L 5.984375 -6.6875 Z M 6.6875 -6.6875 "/></g></g></g><g fill="#004aad" fill-opacity="1"><g transform="translate(185.555952, 270.864827)"><g><path d="M 6.6875 -6.6875 L 6.6875 0 L 6.09375 0 L 1.796875 -5.4375 L 1.796875 0 L 1.09375 0 L 1.09375 -6.6875 L 1.671875 -6.6875 L 5.984375 -1.265625 L 5.984375 -6.6875 Z M 6.6875 -6.6875 "/></g></g></g><g fill="#004aad" fill-opacity="1"><g transform="translate(196.308042, 270.864827)"><g><path d="M 5.828125 -0.609375 L 5.828125 0 L 1.09375 0 L 1.09375 -6.6875 L 5.6875 -6.6875 L 5.6875 -6.078125 L 1.796875 -6.078125 L 1.796875 -3.703125 L 5.265625 -3.703125 L 5.265625 -3.09375 L 1.796875 -3.09375 L 1.796875 -0.609375 Z M 5.828125 -0.609375 "/></g></g></g><g fill="#004aad" fill-opacity="1"><g transform="translate(205.683144, 270.864827)"><g><path d="M 4 0.0625 C 3.332031 0.0625 2.734375 -0.0820312 2.203125 -0.375 C 1.671875 -0.675781 1.253906 -1.082031 0.953125 -1.59375 C 0.648438 -2.113281 0.5 -2.695312 0.5 -3.34375 C 0.5 -3.988281 0.648438 -4.570312 0.953125 -5.09375 C 1.253906 -5.613281 1.671875 -6.019531 2.203125 -6.3125 C 2.742188 -6.601562 3.34375 -6.75 4 -6.75 C 4.5 -6.75 4.957031 -6.664062 5.375 -6.5 C 5.800781 -6.332031 6.160156 -6.09375 6.453125 -5.78125 L 6 -5.328125 C 5.476562 -5.859375 4.820312 -6.125 4.03125 -6.125 C 3.5 -6.125 3.015625 -6 2.578125 -5.75 C 2.148438 -5.507812 1.8125 -5.175781 1.5625 -4.75 C 1.3125 -4.332031 1.1875 -3.863281 1.1875 -3.34375 C 1.1875 -2.820312 1.3125 -2.347656 1.5625 -1.921875 C 1.8125 -1.503906 2.148438 -1.175781 2.578125 -0.9375 C 3.015625 -0.695312 3.5 -0.578125 4.03125 -0.578125 C 4.832031 -0.578125 5.488281 -0.84375 6 -1.375 L 6.453125 -0.921875 C 6.160156 -0.609375 5.800781 -0.363281 5.375 -0.1875 C 4.957031 -0.0195312 4.5 0.0625 4 0.0625 Z M 4 0.0625 "/></g></g></g><g fill="#004aad" fill-opacity="1"><g transform="translate(215.536369, 270.864827)"><g><path d="M 2.390625 -6.078125 L 0.03125 -6.078125 L 0.03125 -6.6875 L 5.453125 -6.6875 L 5.453125 -6.078125 L 3.09375 -6.078125 L 3.09375 0 L 2.390625 0 Z M 2.390625 -6.078125 "/></g></g></g><path stroke-linecap="butt" transform="matrix(0.75, 0, 0, 0.75, 103.958266, 266.739827)" fill="none" stroke-linejoin="miter" d="M -0.0016459 1.997939 L 59.3994 1.997939 " stroke="#000000" stroke-width="4" stroke-opacity="1" stroke-miterlimit="4"/><path stroke-linecap="butt" transform="matrix(0.75, 0, 0, 0.75, 225.56416, 266.739827)" fill="none" stroke-linejoin="miter" d="M -0.00221345 1.997939 L 59.398832 1.997939 " stroke="#000000" stroke-width="4" stroke-opacity="1" stroke-miterlimit="4"/><g clip-path="url(#19a6fc65d2)"><path fill="#000000" d="M 286.238281 207.292969 L 178.957031 207.292969 L 153.296875 128.421875 L 121.839844 128.421875 L 121.839844 118.226562 L 160.703125 118.226562 L 186.359375 197.097656 L 286.238281 197.097656 Z M 286.238281 207.292969 " fill-opacity="1" fill-rule="nonzero"/></g><g clip-path="url(#bfdd7f775f)"><path fill="#1461c8" d="M 212.828125 214.378906 C 212.828125 214.957031 212.773438 215.527344 212.660156 216.09375 C 212.546875 216.660156 212.378906 217.210938 212.160156 217.742188 C 211.9375 218.277344 211.667969 218.78125 211.347656 219.261719 C 211.027344 219.742188 210.664062 220.1875 210.253906 220.59375 C 209.847656 221.003906 209.402344 221.367188 208.921875 221.6875 C 208.441406 222.007812 207.9375 222.277344 207.402344 222.5 C 206.867188 222.71875 206.320312 222.886719 205.753906 223 C 205.1875 223.113281 204.617188 223.167969 204.039062 223.167969 C 203.460938 223.167969 202.890625 223.113281 202.324219 223 C 201.757812 222.886719 201.207031 222.71875 200.675781 222.5 C 200.140625 222.277344 199.636719 222.007812 199.15625 221.6875 C 198.675781 221.367188 198.230469 221.003906 197.824219 220.59375 C 197.414062 220.1875 197.050781 219.742188 196.730469 219.261719 C 196.410156 218.78125 196.136719 218.277344 195.917969 217.742188 C 195.695312 217.210938 195.53125 216.660156 195.417969 216.09375 C 195.304688 215.527344 195.25 214.957031 195.25 214.378906 C 195.25 213.800781 195.304688 213.230469 195.417969 212.664062 C 195.53125 212.097656 195.695312 211.546875 195.917969 211.015625 C 196.136719 210.480469 196.410156 209.976562 196.730469 209.496094 C 197.050781 209.015625 197.414062 208.570312 197.824219 208.164062 C 198.230469 207.753906 198.675781 207.390625 199.15625 207.070312 C 199.636719 206.75 200.140625 206.480469 200.675781 206.257812 C 201.207031 206.035156 201.757812 205.871094 202.324219 205.757812 C 202.890625 205.644531 203.460938 205.589844 204.039062 205.589844 C 204.617188 205.589844 205.1875 205.644531 205.753906 205.757812 C 206.320312 205.871094 206.867188 206.035156 207.402344 206.257812 C 207.9375 206.480469 208.441406 206.75 208.921875 207.070312 C 209.402344 207.390625 209.847656 207.753906 210.253906 208.164062 C 210.664062 208.570312 211.027344 209.015625 211.347656 209.496094 C 211.667969 209.976562 211.9375 210.480469 212.160156 211.015625 C 212.378906 211.546875 212.546875 212.097656 212.660156 212.664062 C 212.773438 213.230469 212.828125 213.800781 212.828125 214.378906 Z M 212.828125 214.378906 " fill-opacity="1" fill-rule="nonzero"/></g><g clip-path="url(#376ab6b7cc)"><path fill="#1461c8" d="M 270.507812 214.378906 C 270.507812 214.957031 270.453125 215.527344 270.339844 216.09375 C 270.226562 216.660156 270.0625 217.210938 269.839844 217.742188 C 269.621094 218.277344 269.347656 218.78125 269.027344 219.261719 C 268.707031 219.742188 268.34375 220.1875 267.933594 220.59375 C 267.527344 221.003906 267.082031 221.367188 266.601562 221.6875 C 266.121094 222.007812 265.617188 222.277344 265.082031 222.5 C 264.550781 222.71875 264 222.886719 263.433594 223 C 262.867188 223.113281 262.296875 223.167969 261.71875 223.167969 C 261.140625 223.167969 260.570312 223.113281 260.003906 223 C 259.4375 222.886719 258.886719 222.71875 258.355469 222.5 C 257.820312 222.277344 257.316406 222.007812 256.835938 221.6875 C 256.355469 221.367188 255.910156 221.003906 255.503906 220.59375 C 255.09375 220.1875 254.730469 219.742188 254.410156 219.261719 C 254.089844 218.78125 253.820312 218.277344 253.597656 217.742188 C 253.378906 217.210938 253.210938 216.660156 253.097656 216.09375 C 252.984375 215.527344 252.929688 214.957031 252.929688 214.378906 C 252.929688 213.800781 252.984375 213.230469 253.097656 212.664062 C 253.210938 212.097656 253.378906 211.546875 253.597656 211.015625 C 253.820312 210.480469 254.089844 209.976562 254.410156 209.496094 C 254.730469 209.015625 255.09375 208.570312 255.503906 208.164062 C 255.910156 207.753906 256.355469 207.390625 256.835938 207.070312 C 257.316406 206.75 257.820312 206.480469 258.355469 206.257812 C 258.886719 206.035156 259.4375 205.871094 260.003906 205.757812 C 260.570312 205.644531 261.140625 205.589844 261.71875 205.589844 C 262.296875 205.589844 262.867188 205.644531 263.433594 205.757812 C 264 205.871094 264.550781 206.035156 265.082031 206.257812 C 265.617188 206.480469 266.121094 206.75 266.601562 207.070312 C 267.082031 207.390625 267.527344 207.753906 267.933594 208.164062 C 268.34375 208.570312 268.707031 209.015625 269.027344 209.496094 C 269.347656 209.976562 269.621094 210.480469 269.839844 211.015625 C 270.0625 211.546875 270.226562 212.097656 270.339844 212.664062 C 270.453125 213.230469 270.507812 213.800781 270.507812 214.378906 Z M 270.507812 214.378906 " fill-opacity="1" fill-rule="nonzero"/></g><path fill="#1461c8" d="M 230.234375 185.082031 C 230.234375 185.511719 230.191406 185.941406 230.105469 186.363281 C 230.023438 186.785156 229.898438 187.195312 229.734375 187.589844 C 229.570312 187.988281 229.367188 188.367188 229.128906 188.722656 C 228.890625 189.082031 228.617188 189.414062 228.3125 189.71875 C 228.007812 190.023438 227.679688 190.292969 227.320312 190.53125 C 226.960938 190.773438 226.585938 190.972656 226.1875 191.136719 C 225.789062 191.304688 225.378906 191.425781 224.957031 191.511719 C 224.535156 191.59375 224.109375 191.636719 223.679688 191.636719 C 223.25 191.636719 222.824219 191.59375 222.402344 191.511719 C 221.976562 191.425781 221.570312 191.304688 221.171875 191.136719 C 220.773438 190.972656 220.394531 190.773438 220.039062 190.53125 C 219.679688 190.292969 219.347656 190.023438 219.042969 189.71875 C 218.742188 189.414062 218.46875 189.082031 218.230469 188.722656 C 217.992188 188.367188 217.789062 187.988281 217.625 187.589844 C 217.460938 187.195312 217.335938 186.785156 217.25 186.363281 C 217.167969 185.941406 217.125 185.511719 217.125 185.082031 C 217.125 184.652344 217.167969 184.226562 217.25 183.804688 C 217.335938 183.382812 217.460938 182.972656 217.625 182.574219 C 217.789062 182.175781 217.992188 181.800781 218.230469 181.441406 C 218.46875 181.085938 218.742188 180.753906 219.042969 180.449219 C 219.347656 180.144531 219.679688 179.871094 220.039062 179.632812 C 220.394531 179.394531 220.773438 179.191406 221.171875 179.027344 C 221.570312 178.863281 221.976562 178.738281 222.402344 178.65625 C 222.824219 178.570312 223.25 178.527344 223.679688 178.527344 C 224.109375 178.527344 224.535156 178.570312 224.957031 178.65625 C 225.378906 178.738281 225.789062 178.863281 226.1875 179.027344 C 226.585938 179.191406 226.960938 179.394531 227.320312 179.632812 C 227.679688 179.871094 228.007812 180.144531 228.3125 180.449219 C 228.617188 180.753906 228.890625 181.085938 229.128906 181.441406 C 229.367188 181.800781 229.570312 182.175781 229.734375 182.574219 C 229.898438 182.972656 230.023438 183.382812 230.105469 183.804688 C 230.191406 184.226562 230.234375 184.652344 230.234375 185.082031 Z M 230.234375 185.082031 " fill-opacity="1" fill-rule="nonzero"/><path fill="#1461c8" d="M 275.160156 149.269531 C 274.167969 149.269531 273.269531 148.976562 272.46875 148.390625 C 248.644531 130.992188 218.261719 127.453125 184.609375 138.15625 C 184.324219 138.246094 184.03125 138.308594 183.730469 138.339844 C 183.433594 138.375 183.136719 138.378906 182.835938 138.351562 C 182.539062 138.328125 182.242188 138.273438 181.957031 138.191406 C 181.667969 138.105469 181.390625 137.996094 181.121094 137.859375 C 180.855469 137.71875 180.605469 137.558594 180.371094 137.371094 C 180.136719 137.183594 179.921875 136.972656 179.730469 136.746094 C 179.535156 136.515625 179.367188 136.269531 179.222656 136.007812 C 179.074219 135.742188 178.957031 135.46875 178.867188 135.183594 C 178.777344 134.898438 178.714844 134.605469 178.679688 134.308594 C 178.648438 134.007812 178.644531 133.710938 178.667969 133.410156 C 178.695312 133.113281 178.75 132.816406 178.832031 132.53125 C 178.914062 132.242188 179.027344 131.964844 179.164062 131.699219 C 179.300781 131.429688 179.464844 131.179688 179.652344 130.945312 C 179.839844 130.710938 180.046875 130.496094 180.277344 130.304688 C 180.507812 130.109375 180.753906 129.941406 181.015625 129.796875 C 181.277344 129.652344 181.550781 129.53125 181.839844 129.441406 C 199.898438 123.699219 217.285156 121.761719 233.523438 123.691406 C 249.878906 125.632812 264.796875 131.460938 277.871094 141.007812 C 278.261719 141.289062 278.597656 141.628906 278.878906 142.019531 C 279.164062 142.410156 279.378906 142.835938 279.527344 143.292969 C 279.675781 143.753906 279.75 144.222656 279.746094 144.707031 C 279.746094 145.1875 279.671875 145.660156 279.523438 146.117188 C 279.371094 146.578125 279.15625 147 278.871094 147.390625 C 278.585938 147.78125 278.25 148.117188 277.859375 148.398438 C 277.46875 148.683594 277.042969 148.898438 276.582031 149.046875 C 276.125 149.195312 275.652344 149.269531 275.171875 149.269531 Z M 275.160156 149.269531 " fill-opacity="1" fill-rule="nonzero"/><path fill="#1461c8" d="M 256.910156 163.398438 C 255.914062 163.402344 255.019531 163.109375 254.214844 162.519531 C 237.664062 150.429688 221.335938 148.542969 197.851562 156.011719 C 197.5625 156.101562 197.273438 156.164062 196.972656 156.199219 C 196.675781 156.234375 196.375 156.238281 196.078125 156.210938 C 195.777344 156.1875 195.484375 156.132812 195.195312 156.046875 C 194.90625 155.964844 194.628906 155.855469 194.363281 155.714844 C 194.097656 155.578125 193.847656 155.414062 193.613281 155.226562 C 193.378906 155.039062 193.164062 154.832031 192.96875 154.601562 C 192.777344 154.375 192.609375 154.128906 192.460938 153.863281 C 192.316406 153.601562 192.199219 153.328125 192.109375 153.042969 C 192.019531 152.753906 191.957031 152.464844 191.921875 152.164062 C 191.886719 151.867188 191.882812 151.566406 191.910156 151.269531 C 191.933594 150.96875 191.988281 150.675781 192.074219 150.386719 C 192.15625 150.097656 192.265625 149.820312 192.40625 149.554688 C 192.542969 149.289062 192.707031 149.039062 192.894531 148.804688 C 193.082031 148.570312 193.289062 148.355469 193.519531 148.160156 C 193.746094 147.96875 193.992188 147.796875 194.257812 147.652344 C 194.519531 147.507812 194.792969 147.390625 195.078125 147.300781 C 208.332031 143.082031 219.835938 141.675781 230.238281 142.964844 C 240.550781 144.246094 250.15625 148.230469 259.628906 155.144531 C 260.015625 155.429688 260.351562 155.765625 260.636719 156.15625 C 260.917969 156.546875 261.132812 156.972656 261.28125 157.433594 C 261.429688 157.890625 261.503906 158.363281 261.503906 158.84375 C 261.503906 159.328125 261.425781 159.796875 261.277344 160.253906 C 261.128906 160.714844 260.910156 161.136719 260.625 161.527344 C 260.339844 161.917969 260.003906 162.253906 259.613281 162.539062 C 259.222656 162.820312 258.796875 163.035156 258.339844 163.183594 C 257.878906 163.332031 257.410156 163.40625 256.925781 163.40625 Z M 256.910156 163.398438 " fill-opacity="1" fill-rule="nonzero"/><path fill="#1461c8" d="M 242.820312 178.089844 C 241.828125 178.089844 240.929688 177.796875 240.128906 177.210938 C 230.160156 169.929688 222.074219 168.96875 208.089844 173.421875 C 207.804688 173.511719 207.511719 173.574219 207.210938 173.605469 C 206.914062 173.640625 206.617188 173.644531 206.316406 173.617188 C 206.015625 173.59375 205.722656 173.539062 205.433594 173.457031 C 205.148438 173.371094 204.871094 173.261719 204.601562 173.125 C 204.335938 172.984375 204.085938 172.824219 203.851562 172.636719 C 203.617188 172.449219 203.402344 172.242188 203.210938 172.011719 C 203.015625 171.78125 202.847656 171.535156 202.703125 171.273438 C 202.554688 171.011719 202.4375 170.734375 202.347656 170.449219 C 202.257812 170.164062 202.195312 169.871094 202.160156 169.574219 C 202.128906 169.273438 202.125 168.976562 202.148438 168.675781 C 202.175781 168.378906 202.230469 168.085938 202.3125 167.796875 C 202.394531 167.507812 202.503906 167.230469 202.644531 166.964844 C 202.78125 166.695312 202.945312 166.445312 203.132812 166.210938 C 203.320312 165.976562 203.527344 165.761719 203.757812 165.570312 C 203.984375 165.375 204.230469 165.207031 204.496094 165.0625 C 204.757812 164.917969 205.03125 164.796875 205.320312 164.707031 C 221.957031 159.433594 233.230469 160.839844 245.519531 169.828125 C 245.910156 170.113281 246.246094 170.449219 246.53125 170.839844 C 246.8125 171.230469 247.027344 171.65625 247.175781 172.113281 C 247.324219 172.574219 247.398438 173.042969 247.398438 173.527344 C 247.394531 174.007812 247.320312 174.480469 247.171875 174.9375 C 247.019531 175.398438 246.804688 175.820312 246.519531 176.210938 C 246.234375 176.601562 245.898438 176.9375 245.507812 177.21875 C 245.117188 177.503906 244.691406 177.71875 244.234375 177.867188 C 243.773438 178.015625 243.304688 178.089844 242.820312 178.089844 Z M 242.820312 178.089844 " fill-opacity="1" fill-rule="nonzero"/><path fill="#1461c8" d="M 116.328125 153.777344 L 149.042969 153.777344 C 149.523438 153.777344 149.984375 153.867188 150.425781 154.050781 C 150.867188 154.234375 151.257812 154.496094 151.59375 154.832031 C 151.933594 155.171875 152.195312 155.5625 152.378906 156.003906 C 152.558594 156.445312 152.652344 156.90625 152.652344 157.382812 L 152.652344 157.570312 C 152.652344 158.046875 152.558594 158.507812 152.378906 158.949219 C 152.195312 159.394531 151.933594 159.78125 151.59375 160.121094 C 151.257812 160.460938 150.867188 160.71875 150.425781 160.902344 C 149.984375 161.085938 149.523438 161.175781 149.042969 161.175781 L 116.328125 161.175781 C 115.847656 161.175781 115.390625 161.085938 114.945312 160.902344 C 114.503906 160.71875 114.113281 160.460938 113.777344 160.121094 C 113.4375 159.78125 113.175781 159.394531 112.996094 158.949219 C 112.8125 158.507812 112.71875 158.046875 112.71875 157.570312 L 112.71875 157.382812 C 112.71875 156.90625 112.8125 156.445312 112.996094 156.003906 C 113.175781 155.5625 113.4375 155.171875 113.777344 154.832031 C 114.113281 154.496094 114.503906 154.234375 114.945312 154.050781 C 115.390625 153.867188 115.847656 153.777344 116.328125 153.777344 Z M 116.328125 153.777344 " fill-opacity="1" fill-rule="nonzero"/><path fill="#1461c8" d="M 98.09375 180.609375 L 134.183594 180.609375 C 134.660156 180.609375 135.121094 180.703125 135.5625 180.886719 C 136.003906 181.070312 136.394531 181.328125 136.734375 181.667969 C 137.070312 182.003906 137.332031 182.394531 137.515625 182.835938 C 137.699219 183.28125 137.789062 183.738281 137.789062 184.21875 L 137.789062 184.40625 C 137.789062 184.882812 137.699219 185.34375 137.515625 185.785156 C 137.332031 186.226562 137.070312 186.617188 136.734375 186.957031 C 136.394531 187.292969 136.003906 187.554688 135.5625 187.738281 C 135.121094 187.921875 134.660156 188.011719 134.183594 188.011719 L 98.09375 188.011719 C 97.613281 188.011719 97.15625 187.921875 96.710938 187.738281 C 96.269531 187.554688 95.878906 187.292969 95.542969 186.957031 C 95.203125 186.617188 94.945312 186.226562 94.761719 185.785156 C 94.578125 185.34375 94.484375 184.882812 94.484375 184.40625 L 94.484375 184.21875 C 94.484375 183.738281 94.578125 183.28125 94.761719 182.835938 C 94.945312 182.394531 95.203125 182.003906 95.542969 181.667969 C 95.878906 181.328125 96.269531 181.070312 96.710938 180.886719 C 97.15625 180.703125 97.613281 180.609375 98.09375 180.609375 Z M 98.09375 180.609375 " fill-opacity="1" fill-rule="nonzero"/><g clip-path="url(#c0d718d83a)"><path fill="#000000" d="M 92.355469 167.332031 L 114.859375 167.332031 C 115.339844 167.332031 115.800781 167.421875 116.242188 167.605469 C 116.683594 167.789062 117.074219 168.050781 117.410156 168.386719 C 117.75 168.726562 118.011719 169.117188 118.195312 169.558594 C 118.378906 170 118.46875 170.460938 118.46875 170.9375 L 118.46875 171.125 C 118.46875 171.601562 118.378906 172.0625 118.195312 172.503906 C 118.011719 172.945312 117.75 173.335938 117.410156 173.675781 C 117.074219 174.011719 116.683594 174.273438 116.242188 174.457031 C 115.800781 174.640625 115.339844 174.730469 114.859375 174.730469 L 92.355469 174.730469 C 91.875 174.730469 91.417969 174.640625 90.972656 174.457031 C 90.53125 174.273438 90.140625 174.011719 89.804688 173.675781 C 89.464844 173.335938 89.207031 172.945312 89.023438 172.503906 C 88.839844 172.0625 88.746094 171.601562 88.746094 171.125 L 88.746094 170.9375 C 88.746094 170.460938 88.839844 170 89.023438 169.558594 C 89.207031 169.117188 89.464844 168.726562 89.804688 168.386719 C 90.140625 168.050781 90.53125 167.789062 90.972656 167.605469 C 91.417969 167.421875 91.875 167.332031 92.355469 167.332031 Z M 92.355469 167.332031 " fill-opacity="1" fill-rule="nonzero"/></g><path fill="#1461c8" d="M 126.539062 167.332031 L 149.042969 167.332031 C 149.523438 167.332031 149.984375 167.421875 150.425781 167.605469 C 150.867188 167.789062 151.257812 168.050781 151.59375 168.386719 C 151.933594 168.726562 152.195312 169.117188 152.378906 169.558594 C 152.558594 170 152.652344 170.460938 152.652344 170.9375 L 152.652344 171.125 C 152.652344 171.601562 152.558594 172.0625 152.378906 172.503906 C 152.195312 172.945312 151.933594 173.335938 151.59375 173.675781 C 151.257812 174.011719 150.867188 174.273438 150.425781 174.457031 C 149.984375 174.640625 149.523438 174.730469 149.042969 174.730469 L 126.539062 174.730469 C 126.058594 174.730469 125.597656 174.640625 125.15625 174.457031 C 124.714844 174.273438 124.324219 174.011719 123.988281 173.675781 C 123.648438 173.335938 123.386719 172.945312 123.207031 172.503906 C 123.023438 172.0625 122.929688 171.601562 122.929688 171.125 L 122.929688 170.9375 C 122.929688 170.460938 123.023438 170 123.207031 169.558594 C 123.386719 169.117188 123.648438 168.726562 123.988281 168.386719 C 124.324219 168.050781 124.714844 167.789062 125.15625 167.605469 C 125.597656 167.421875 126.058594 167.332031 126.539062 167.332031 Z M 126.539062 167.332031 " fill-opacity="1" fill-rule="nonzero"/><path fill="#000000" d="M 145.164062 180.609375 L 152.417969 180.609375 C 152.894531 180.609375 153.355469 180.703125 153.796875 180.886719 C 154.238281 181.070312 154.628906 181.328125 154.96875 181.667969 C 155.304688 182.003906 155.566406 182.394531 155.75 182.835938 C 155.933594 183.28125 156.023438 183.738281 156.023438 184.21875 L 156.023438 184.40625 C 156.023438 184.882812 155.933594 185.34375 155.75 185.785156 C 155.566406 186.226562 155.304688 186.617188 154.96875 186.957031 C 154.628906 187.292969 154.238281 187.554688 153.796875 187.738281 C 153.355469 187.921875 152.894531 188.011719 152.417969 188.011719 L 145.164062 188.011719 C 144.6875 188.011719 144.226562 187.921875 143.785156 187.738281 C 143.34375 187.554688 142.953125 187.292969 142.613281 186.957031 C 142.277344 186.617188 142.015625 186.226562 141.832031 185.785156 C 141.648438 185.34375 141.558594 184.882812 141.558594 184.40625 L 141.558594 184.21875 C 141.558594 183.738281 141.648438 183.28125 141.832031 182.835938 C 142.015625 182.394531 142.277344 182.003906 142.613281 181.667969 C 142.953125 181.328125 143.34375 181.070312 143.785156 180.886719 C 144.226562 180.703125 144.6875 180.609375 145.164062 180.609375 Z M 145.164062 180.609375 " fill-opacity="1" fill-rule="nonzero"/><path fill="#000000" d="M 96.0625 153.777344 L 103.316406 153.777344 C 103.792969 153.777344 104.253906 153.867188 104.695312 154.050781 C 105.136719 154.234375 105.527344 154.496094 105.867188 154.832031 C 106.203125 155.171875 106.464844 155.5625 106.648438 156.003906 C 106.832031 156.445312 106.921875 156.90625 106.921875 157.382812 L 106.921875 157.570312 C 106.921875 158.046875 106.832031 158.507812 106.648438 158.949219 C 106.464844 159.394531 106.203125 159.78125 105.867188 160.121094 C 105.527344 160.460938 105.136719 160.71875 104.695312 160.902344 C 104.253906 161.085938 103.792969 161.175781 103.316406 161.175781 L 96.0625 161.175781 C 95.585938 161.175781 95.125 161.085938 94.683594 160.902344 C 94.242188 160.71875 93.851562 160.460938 93.511719 160.121094 C 93.175781 159.78125 92.914062 159.394531 92.730469 158.949219 C 92.546875 158.507812 92.457031 158.046875 92.457031 157.570312 L 92.457031 157.382812 C 92.457031 156.90625 92.546875 156.445312 92.730469 156.003906 C 92.914062 155.5625 93.175781 155.171875 93.511719 154.832031 C 93.851562 154.496094 94.242188 154.234375 94.683594 154.050781 C 95.125 153.867188 95.585938 153.777344 96.0625 153.777344 Z M 96.0625 153.777344 " fill-opacity="1" fill-rule="nonzero"/></svg>